<?xml version="1.0" standalone="no"?>
<!DOCTYPE svg PUBLIC "-//W3C//DTD SVG 20010904//EN"
 "http://www.w3.org/TR/2001/REC-SVG-20010904/DTD/svg10.dtd">
<svg version="1.0" xmlns="http://www.w3.org/2000/svg"
 width="598.000000pt" height="598.000000pt" viewBox="0 0 598.000000 598.000000"
 preserveAspectRatio="xMidYMid meet">
<metadata>
Created by potrace 1.14, written by Peter Selinger 2001-2017
</metadata>
<g transform="translate(0.000000,598.000000) scale(0.100000,-0.100000)"
fill="#000000" stroke="none">
<path d="M2610 5590 c-153 -29 -377 -92 -390 -110 -3 -4 -23 -10 -45 -13 -78
-12 -297 -77 -413 -122 -116 -46 -350 -163 -420 -210 -20 -14 -47 -25 -59 -25
-12 0 -57 -28 -100 -61 -83 -66 -333 -312 -371 -366 l-23 -33 44 0 c44 0 46 2
117 85 85 100 207 217 322 309 l82 66 100 0 101 0 -55 -37 c-110 -73 -248
-189 -363 -305 l-118 -118 -59 0 -59 0 -47 -60 c-31 -40 -54 -60 -68 -60 -22
0 -77 -74 -151 -202 l-27 -48 45 0 c42 0 47 3 68 38 12 20 47 76 78 124 l56
88 68 0 c53 0 66 -3 60 -13 -4 -7 -41 -61 -80 -119 -40 -59 -73 -110 -73 -113
0 -3 25 -5 55 -5 30 0 55 -1 55 -3 0 -2 -25 -52 -56 -110 l-55 -107 -42 -1
-42 0 72 -37 c62 -31 72 -39 67 -57 -11 -35 -19 -37 -108 -28 -47 5 -86 8 -86
6 0 -8 88 -46 112 -47 15 -1 31 -5 34 -9 9 -8 -26 -87 -38 -87 -5 0 -19 11
-32 25 -26 28 -148 86 -188 89 -15 1 -31 6 -35 10 -11 11 30 81 47 80 8 0 47
-4 85 -7 l70 -7 -35 20 c-19 10 -47 19 -62 20 -15 0 -33 7 -42 15 -10 11 -36
15 -86 15 l-71 0 -28 -62 c-15 -35 -41 -100 -57 -145 -27 -76 -31 -83 -56 -83
-30 0 -33 -7 -66 -145 -37 -151 -39 -135 13 -135 28 0 47 5 49 13 3 6 14 53
25 102 42 178 34 165 96 165 30 0 57 5 60 11 15 23 54 28 102 13 26 -9 96 -19
155 -23 86 -5 113 -11 135 -27 52 -39 38 -131 -23 -154 -19 -7 -47 -3 -118 20
-113 36 -131 53 -124 115 l6 45 -68 0 -67 0 -16 -57 c-42 -149 -56 -218 -46
-224 7 -4 7 -26 0 -70 -6 -35 -14 -79 -17 -96 l-5 -33 45 0 c39 0 46 3 50 23
5 22 26 161 26 171 0 3 7 6 15 6 9 0 18 13 22 31 6 31 7 31 51 25 54 -7 53 -6
46 -32 -4 -16 -12 -20 -32 -18 -15 2 -19 1 -9 -2 13 -4 17 -12 14 -27 -3 -12
-11 -56 -17 -98 l-12 -77 -104 -7 c-56 -4 -108 -4 -114 0 -6 4 -49 4 -95 0
-65 -6 -85 -11 -89 -24 -3 -9 -8 -69 -12 -133 l-7 -118 62 0 61 0 0 -157 c0
-91 6 -198 15 -253 24 -150 19 -140 71 -140 43 0 46 1 40 23 -20 81 -36 248
-36 377 l0 150 45 0 45 0 0 -72 c1 -94 15 -246 36 -375 l17 -103 42 0 43 0 22
-93 c13 -50 31 -116 41 -144 l18 -53 -25 0 c-13 0 -24 -5 -24 -11 0 -5 20 -59
44 -119 40 -101 42 -109 24 -112 -17 -3 -14 -13 30 -103 28 -55 79 -148 115
-208 l65 -107 -39 0 c-21 0 -39 -3 -39 -6 0 -4 34 -49 75 -100 l76 -94 58 0
59 0 115 -115 115 -115 -72 0 -71 -1 45 -39 45 -39 -35 -1 -35 -1 35 -30 c72
-63 255 -190 365 -254 100 -58 119 -66 157 -63 l43 3 -89 50 c-104 58 -233
145 -341 230 l-76 60 74 3 75 3 78 -59 c101 -77 229 -154 374 -228 107 -53
122 -58 205 -65 72 -5 122 -18 247 -62 537 -187 1127 -182 1673 15 l120 43
-62 3 -62 3 140 70 c132 66 389 228 418 263 12 14 5 16 -65 16 l-79 1 45 39
c44 39 47 39 123 40 l78 0 112 113 112 112 -57 3 -58 3 76 95 c42 52 75 96 73
98 -65 50 -105 76 -119 76 -10 0 -23 7 -30 15 -9 11 -8 20 9 43 40 56 45 57
86 6 34 -41 39 -44 53 -30 14 14 14 18 -7 40 -13 14 -29 22 -35 20 -7 -3 -20
4 -29 14 -16 18 -15 21 17 58 29 34 35 37 50 25 9 -7 16 -19 16 -25 0 -18 126
-116 148 -116 11 0 25 -7 32 -15 10 -13 8 -22 -15 -55 -15 -22 -31 -40 -35
-40 -4 0 -15 9 -25 20 -10 11 -15 20 -10 20 4 0 -3 9 -16 19 -21 17 -26 18
-38 6 -13 -13 -12 -17 4 -35 10 -11 24 -19 31 -16 7 3 18 -2 24 -10 9 -10 37
-14 105 -14 l93 0 65 100 c36 55 91 149 121 210 l57 110 -79 0 -80 0 47 120
46 119 126 1 127 0 31 113 c17 61 34 127 37 144 l6 33 -126 -1 c-69 0 -126 -5
-126 -10 0 -5 23 -8 50 -8 28 1 52 0 55 -2 2 -2 -1 -26 -7 -52 -8 -40 -13 -47
-33 -47 -13 0 -28 6 -32 13 -10 16 -156 51 -181 43 -34 -11 -55 4 -48 35 4 22
2 29 -9 29 -8 0 -15 4 -15 9 0 16 -44 21 -55 7 -6 -8 -21 -16 -34 -18 -20 -2
-28 -17 -51 -88 -15 -47 -40 -112 -54 -144 -14 -33 -24 -61 -21 -64 11 -11
-18 -42 -40 -42 -28 0 -42 -17 -27 -32 8 -8 29 -4 71 12 88 33 161 12 161 -46
0 -18 -29 -88 -46 -112 -5 -8 -74 29 -74 40 0 18 15 39 26 37 21 -4 34 2 34
16 0 21 -29 19 -85 -5 -58 -25 -82 -25 -122 0 -27 16 -33 26 -33 54 0 19 6 41
13 48 15 16 48 92 93 216 39 108 40 112 16 112 -14 0 -23 -16 -38 -62 -10 -35
-19 -67 -19 -73 0 -5 -3 -12 -6 -15 -3 -3 -21 -35 -39 -72 l-33 -68 -52 0
c-47 0 -53 -3 -64 -27 -7 -16 -38 -73 -69 -128 -31 -55 -54 -100 -52 -100 2 0
-10 -14 -26 -30 -56 -58 -118 -130 -119 -136 0 -9 -99 -101 -105 -98 -3 1 -11
-9 -17 -22 -7 -13 -13 -20 -13 -15 0 4 -19 -10 -42 -33 -24 -23 -53 -44 -65
-47 -13 -4 -23 -10 -23 -15 0 -5 -20 -9 -44 -9 -38 0 -52 -7 -103 -48 -32 -27
-91 -72 -131 -100 l-74 -51 54 -3 53 -3 -85 -47 c-190 -104 -408 -178 -526
-178 -39 0 -114 -9 -165 -19 -261 -54 -531 -54 -779 -1 l-85 18 60 1 60 2
-125 42 c-137 48 -244 95 -339 151 -54 31 -71 36 -125 36 -59 0 -67 3 -137 52
-41 28 -100 73 -132 100 -32 26 -66 48 -75 48 -14 0 -14 2 2 13 16 12 16 14
-2 30 -17 16 -21 16 -32 2 -17 -20 -27 -19 -41 6 -9 18 -7 26 17 50 15 16 33
29 40 29 7 0 39 -29 71 -65 39 -44 65 -65 81 -65 12 0 51 -22 86 -48 35 -27
104 -72 153 -100 82 -47 96 -52 149 -51 52 0 56 2 32 11 -16 5 -28 14 -28 19
0 6 -4 8 -9 4 -5 -3 -13 0 -16 6 -4 5 -13 8 -21 5 -8 -3 -17 1 -20 9 -4 8 -10
15 -14 15 -14 0 -143 78 -174 105 l-29 25 33 0 34 0 -95 98 c-130 133 -267
309 -314 404 -10 18 -27 41 -39 51 -11 10 -15 16 -8 12 6 -3 3 10 -9 29 -12
20 -17 36 -13 36 4 0 -1 7 -12 15 -17 13 -15 14 35 15 46 0 53 2 48 18 -3 9
-25 69 -48 132 -23 63 -43 121 -45 127 -2 9 -27 13 -77 13 l-73 0 -13 35 c-7
19 -9 39 -6 45 3 5 2 10 -2 10 -10 0 -48 191 -48 243 0 20 -3 37 -6 37 -4 0
-6 17 -4 38 1 20 0 41 -3 47 -3 5 -5 28 -5 52 1 31 -3 43 -13 43 -35 0 -9
-256 53 -527 5 -21 2 -23 -40 -23 -45 0 -47 1 -56 38 -34 128 -61 329 -61 447
l0 65 -85 0 c-53 0 -85 4 -85 11 0 5 -4 8 -9 4 -6 -3 -8 4 -5 17 3 13 7 53 9
90 2 37 6 77 10 89 6 16 4 20 -6 14 -8 -5 -5 2 6 15 12 14 14 20 5 15 -11 -6
-12 -5 -5 3 7 7 65 12 157 14 80 2 143 5 138 8 -4 3 1 43 11 90 24 114 25 110
-20 110 -49 0 -55 14 -30 70 10 23 19 51 19 61 0 17 26 85 51 132 7 12 5 17
-5 17 -15 0 -57 -93 -96 -212 l-22 -68 -44 0 c-24 0 -44 4 -44 9 0 16 50 169
71 218 16 37 17 48 7 54 -10 7 -9 16 7 46 11 21 22 40 25 43 6 6 33 53 52 90
7 14 21 35 32 47 10 11 17 24 17 27 -1 4 5 13 13 21 11 12 42 15 134 15 l119
0 69 92 c38 50 75 100 83 110 13 17 10 18 -45 18 l-59 0 105 103 c139 136 188
178 206 181 9 1 19 7 22 13 4 6 18 14 32 18 27 8 88 55 72 55 -12 0 -108 -54
-168 -94 -37 -24 -49 -27 -115 -24 l-74 3 80 57 c77 55 82 57 144 58 55 0 71
5 122 36 80 48 225 115 334 154 523 185 1134 131 1613 -142 l75 -43 -52 -5
-53 -5 79 -55 c43 -30 97 -67 120 -81 24 -14 52 -34 62 -45 10 -10 36 -32 56
-49 65 -52 75 -62 70 -69 -3 -3 -2 -4 1 -1 4 2 23 -11 43 -30 36 -35 59 -46
44 -22 -13 21 -145 140 -213 191 l-62 46 75 0 76 0 58 -49 c32 -27 92 -83 133
-125 l74 -76 61 0 60 -1 61 -77 c33 -42 71 -92 83 -109 l22 -33 -54 0 -55 0
-65 83 c-72 92 -124 144 -133 134 -3 -3 11 -23 31 -44 56 -58 135 -160 128
-167 -4 -3 -57 -6 -119 -6 l-112 0 64 -112 c36 -62 70 -127 76 -145 7 -20 20
-33 32 -35 15 -2 22 -12 24 -30 2 -16 8 -28 13 -28 6 0 7 -4 4 -10 -3 -5 -1
-10 4 -10 6 0 10 -3 9 -7 -1 -5 4 -20 10 -34 6 -15 14 -44 17 -65 10 -57 26
-94 41 -94 8 0 14 2 14 4 0 10 -74 214 -86 238 -8 15 -14 29 -14 33 0 3 22 5
49 5 l49 0 32 -82 c17 -46 38 -109 47 -140 l16 -58 55 0 c31 0 52 -3 49 -6 -3
-4 -1 -16 5 -28 6 -11 12 -32 13 -46 3 -45 17 -105 28 -117 11 -14 57 -16 170
-7 65 6 77 10 77 25 0 21 36 35 53 21 15 -12 180 5 185 19 2 5 17 9 33 9 26 0
29 -3 29 -34 0 -34 -1 -35 -47 -39 -27 -2 4 -2 67 0 63 3 117 6 119 8 3 4 -11
98 -25 168 l-6 27 -108 0 -109 0 -10 38 c-5 20 -22 83 -37 140 l-27 102 -72 0
c-68 0 -73 -1 -68 -20 4 -14 0 -20 -13 -22 -11 0 -24 -2 -30 -2 -6 -1 -22 -9
-35 -18 l-24 -16 29 -7 c17 -5 31 -4 35 3 4 7 17 13 30 14 19 3 26 -4 37 -36
17 -47 6 -60 -41 -51 -143 28 -166 27 -198 -7 -11 -10 -26 -18 -35 -16 -16 3
-49 85 -38 95 4 4 27 8 51 9 35 2 56 11 89 38 34 28 52 36 85 36 26 0 41 4 41
13 0 6 -24 72 -54 145 l-53 132 84 0 c45 0 83 4 83 9 0 19 42 24 52 7 7 -12
25 -16 84 -16 l75 0 -57 110 -57 110 -61 0 -61 0 -83 125 -84 125 -90 0 -90 0
41 -49 c23 -27 41 -51 41 -54 0 -3 -16 -18 -35 -33 -29 -22 -38 -24 -50 -14
-14 12 -14 15 1 31 10 11 15 22 12 24 -8 8 -142 -104 -150 -125 -13 -36 -31
-34 -65 5 -31 36 -32 39 -16 57 9 10 22 17 29 16 14 -3 144 99 144 113 0 6 -9
5 -20 -1 -23 -12 -40 -6 -40 15 0 9 15 15 45 17 l45 3 -44 55 -44 55 54 5 55
5 -67 73 c-82 89 -261 245 -373 323 l-84 59 -125 0 -124 0 -83 50 c-198 120
-435 218 -679 281 l-151 38 225 2 225 2 -90 14 c-161 25 -568 21 -716 -7 -29
-6 -151 -10 -273 -9 l-221 0 55 20 c72 26 264 75 365 93 74 13 76 14 30 14
-27 0 -93 -8 -145 -18z m144 -232 c9 -13 16 -43 16 -70 0 -57 -25 -88 -70 -88
-27 0 -30 -3 -30 -30 0 -16 5 -30 10 -30 6 0 10 -7 10 -15 0 -11 -11 -15 -41
-15 -36 0 -40 -2 -37 -22 3 -21 -4 -24 -72 -40 -107 -23 -117 -23 -122 7 -3
14 -1 25 3 25 5 0 9 7 9 16 0 14 8 16 48 11 59 -7 102 1 102 19 0 8 5 14 10
14 13 0 1 183 -11 188 -5 2 -9 15 -9 28 0 23 2 24 84 24 76 0 86 -2 100 -22z
m231 7 c64 -10 85 -29 85 -75 0 -25 -7 -47 -18 -58 -15 -15 -16 -22 -6 -38 7
-10 10 -34 7 -51 -5 -30 -9 -33 -39 -33 -33 0 -34 1 -34 39 0 37 -14 61 -27
47 -4 -3 -7 -26 -8 -51 -1 -25 -4 -48 -7 -51 -3 -2 -28 -7 -57 -11 -43 -5 -51
-3 -51 11 0 9 5 16 10 16 6 0 10 7 10 15 0 8 4 15 9 15 13 0 33 173 20 180 -6
4 -7 18 -3 34 7 29 -1 28 109 11z m-663 -71 c2 -24 -1 -30 -20 -32 -14 -2 -29
4 -36 14 -18 24 -48 11 -44 -18 2 -14 12 -24 28 -28 34 -8 43 -60 9 -60 -17 0
-20 -4 -15 -22 3 -13 6 -26 6 -30 0 -5 12 -8 26 -8 21 0 24 4 19 20 -5 15 0
21 20 26 30 7 30 7 39 -23 6 -17 3 -23 -8 -23 -20 0 -20 -7 -2 -58 16 -44 13
-52 -19 -52 -13 0 -28 -7 -35 -15 -16 -19 -59 -19 -87 0 -11 8 -28 36 -37 62
-19 57 -20 63 -2 63 11 0 11 12 -1 72 -9 39 -21 78 -29 86 -31 30 -17 50 44
62 31 7 73 15 92 19 38 8 45 1 52 -55z m962 14 c44 -12 84 -24 88 -27 4 -3 2
-25 -3 -48 -11 -40 -12 -41 -39 -32 -21 8 -27 15 -23 30 4 15 0 19 -20 19 -42
0 -45 -48 -3 -63 5 -2 6 -15 2 -30 -5 -23 -10 -26 -31 -21 -19 5 -25 2 -25
-10 0 -9 -7 -16 -15 -16 -9 0 -15 -9 -15 -21 0 -19 -4 -21 -37 -15 -21 3 -46
6 -55 6 -32 0 -20 29 14 32 29 3 32 7 50 73 11 38 17 79 14 91 -6 22 1 54 11
54 3 0 42 -10 87 -22z m-1264 -43 c24 -62 23 -72 -5 -77 -17 -4 -28 -1 -32 8
-3 8 -12 14 -20 14 -12 0 -14 -8 -10 -32 3 -18 8 -41 12 -50 5 -14 2 -18 -14
-18 -24 0 -24 0 -12 -33 7 -19 15 -23 33 -20 18 4 27 -1 36 -21 6 -14 8 -26 4
-26 -4 0 -13 -4 -20 -9 -12 -7 -11 -14 2 -40 14 -26 20 -30 35 -21 13 7 17 17
14 31 -6 21 10 39 33 39 11 0 50 -77 43 -84 -9 -10 -154 -76 -166 -76 -13 0
-27 35 -19 48 8 14 -62 153 -92 181 l-27 26 38 3 38 3 -8 37 c-16 84 -4 105
73 126 27 7 50 14 52 15 1 0 7 -10 12 -24z m1555 -54 c48 -22 66 -36 71 -55 8
-35 -2 -46 -41 -46 -30 0 -34 3 -32 21 3 31 -21 35 -32 6 -7 -18 -19 -27 -38
-29 -34 -4 -43 -33 -12 -41 15 -4 23 0 26 14 6 20 47 27 58 9 8 -12 -15 -90
-27 -90 -34 0 -178 45 -178 55 0 23 12 45 21 39 5 -3 9 0 9 5 0 6 11 11 26 11
19 0 28 8 40 35 8 20 12 40 9 46 -10 15 5 49 21 49 8 0 43 -13 79 -29z m-1806
-60 l20 -39 -107 0 -107 0 80 39 c43 21 83 39 87 39 4 0 17 -18 27 -39z m299
-24 c2 -12 -3 -17 -18 -17 -12 0 -30 -5 -42 -11 -23 -13 -31 -8 -22 14 6 16
51 37 69 33 6 -2 11 -10 13 -19z m1716 -22 c-7 -17 21 -21 31 -5 6 10 75 14
75 5 0 -4 -7 -19 -15 -35 -21 -40 -45 -51 -86 -40 -18 5 -33 9 -34 7 -15 -18
-23 -47 -15 -52 6 -4 5 -15 -2 -30 l-11 -24 -46 19 c-25 9 -46 23 -45 29 1 6
2 18 3 26 0 8 7 15 14 15 6 0 20 20 30 44 17 40 22 45 55 49 20 2 40 4 44 5 4
1 5 -5 2 -13z m-468 -11 c-3 -9 -6 -20 -6 -25 0 -12 -77 -12 -84 0 -15 24 7
41 51 41 37 0 44 -3 39 -16z m783 -12 c43 -24 47 -29 38 -50 -6 -12 -15 -22
-22 -22 -11 0 -59 -156 -54 -176 5 -16 -12 -54 -23 -54 -8 0 -64 30 -86 46 -9
6 20 44 33 44 22 0 18 18 -5 30 -23 12 -41 5 -34 -13 2 -7 -2 -21 -9 -31 -14
-19 -15 -19 -51 3 -20 13 -36 27 -36 31 0 5 36 44 80 87 46 43 79 82 76 90 -8
21 5 43 25 43 11 0 41 -12 68 -28z m-2423 -89 c4 -10 6 -23 5 -30 -3 -18 88
-153 104 -153 21 0 28 19 14 37 -11 13 -10 18 10 34 l24 20 28 -42 c15 -24 26
-46 24 -50 -3 -4 -39 -28 -81 -54 -72 -45 -77 -47 -88 -29 -6 10 -11 26 -11
34 0 22 -88 160 -102 160 -7 0 -17 9 -23 20 -9 17 -5 23 27 44 46 30 58 31 69
9z m2718 -116 c20 -27 20 -28 1 -63 -20 -38 -49 -59 -66 -48 -7 4 -9 -1 -4
-15 4 -14 -1 -33 -14 -55 -11 -18 -18 -36 -14 -39 3 -4 -14 -7 -40 -7 -25 0
-48 4 -51 9 -3 5 11 30 30 56 33 42 35 49 21 62 -13 14 -17 12 -33 -13 -10
-15 -19 -32 -19 -38 0 -6 -5 -19 -11 -30 -11 -17 -13 -17 -53 9 -46 31 -50 53
-13 71 29 14 124 143 116 156 -3 5 2 18 11 28 17 19 19 18 68 -19 28 -20 60
-49 71 -64z m-2954 -58 c7 -11 9 -23 6 -26 -3 -3 20 -35 50 -71 51 -59 54 -66
37 -75 -10 -6 -42 -30 -71 -55 -50 -42 -54 -44 -72 -27 -10 9 -16 22 -14 29 3
7 -2 19 -11 26 -27 22 -16 30 41 30 l55 0 -36 45 c-21 25 -41 43 -45 40 -4 -2
-16 5 -26 16 -19 21 -19 22 20 55 46 40 52 41 66 13z m3172 -118 c20 -19 35
-38 32 -43 -3 -4 -31 -8 -63 -8 -75 0 -110 -19 -140 -75 -21 -40 -28 -45 -58
-45 -25 0 -40 8 -58 28 l-23 27 -11 -27 c-13 -35 -49 -37 -80 -5 -25 28 -22
32 53 72 31 16 63 25 94 25 l47 0 -30 -24 c-23 -19 -27 -27 -18 -36 9 -10 17
-4 35 24 12 20 26 36 30 36 16 0 97 56 94 65 -2 6 3 18 12 27 17 20 21 18 84
-41z m-2945 -36 c-2 -5 -26 -11 -53 -13 -35 -2 -45 0 -34 7 13 9 13 14 2 32
-11 18 -11 24 5 41 18 20 18 19 50 -19 18 -21 31 -42 30 -48z m-372 -5 c4 -6
-12 -10 -40 -10 -28 0 -44 4 -40 10 3 6 21 10 40 10 19 0 37 -4 40 -10z m-40
-70 c33 -33 68 -60 78 -60 11 0 36 -13 57 -30 56 -44 82 -39 38 7 l-21 23 51
0 c54 0 58 -4 53 -55 -3 -34 -51 -75 -88 -75 -26 0 -45 12 -102 65 -37 36 -76
65 -86 65 -10 0 -35 16 -56 35 -59 53 -94 47 -42 -7 l27 -28 -52 0 c-47 0 -54
3 -62 25 -10 27 -5 51 18 78 11 12 30 17 71 17 56 0 57 -1 116 -60z m2910 40
c-17 -19 -19 -19 -39 -3 -12 10 -23 19 -25 20 -2 2 15 3 39 3 43 0 43 0 25
-20z m462 -98 c-23 -3 -53 -44 -49 -68 1 -6 -6 -18 -16 -27 -17 -16 -20 -14
-55 21 l-38 38 22 20 c12 10 23 18 25 17 13 -8 36 0 61 21 l28 25 23 -22 24
-22 -25 -3z m-162 -12 c-3 -5 -12 -7 -20 -3 -21 7 -19 13 6 13 11 0 18 -4 14
-10z m-3285 -59 c34 -28 34 -29 17 -48 -12 -13 -26 -19 -42 -15 -41 7 -29 -15
36 -66 l62 -47 -59 -3 c-57 -3 -60 -2 -96 37 -44 47 -47 73 -13 107 13 13 29
33 35 44 14 26 19 25 60 -9z m170 -157 c0 -21 5 -23 62 -26 l61 -3 -27 -32
c-37 -44 -77 -44 -136 -1 -23 18 -38 34 -32 36 16 5 15 22 -3 42 -13 14 -13
19 1 39 l16 23 29 -28 c16 -15 29 -38 29 -50z m3666 -9 c11 -8 42 -14 75 -15
64 0 80 -12 81 -59 1 -39 -11 -53 -95 -108 -90 -57 -127 -64 -161 -30 -56 56
-44 110 36 159 l53 33 -54 3 c-48 3 -52 4 -35 17 25 19 75 19 100 0z m-3963
-188 c33 -35 61 -47 112 -47 l46 0 -39 -57 c-21 -32 -60 -97 -86 -145 l-48
-88 -44 0 c-24 0 -44 5 -44 10 0 15 64 139 110 215 l40 65 -60 0 -60 0 17 35
c20 41 27 43 56 12z m3855 -84 c33 -66 35 -89 8 -120 -19 -22 -32 -28 -65 -28
-26 0 -41 -4 -41 -12 0 -7 -12 -20 -27 -30 -16 -9 -36 -25 -46 -35 -26 -27
-41 -22 -61 18 -9 20 -16 37 -14 38 2 1 22 10 46 21 51 22 70 41 55 56 -12 12
-43 -1 -74 -32 -29 -29 -45 -23 -64 27 -19 50 -10 69 28 60 10 -3 55 13 100
35 105 51 131 51 155 2z m97 -230 c6 -22 3 -23 -40 -23 l-45 0 16 24 c15 25
43 38 55 27 4 -3 10 -16 14 -28z m-4112 -323 c54 -11 110 -17 131 -13 40 6 42
3 30 -69 -6 -31 -11 -38 -30 -38 -13 0 -27 6 -31 13 -4 8 -37 19 -73 26 -36 7
-75 15 -87 18 -28 6 -31 -13 -4 -20 14 -3 18 -11 14 -26 -4 -17 -11 -20 -32
-15 -70 16 -68 12 -50 94 6 29 16 50 24 50 7 0 56 -9 108 -20z m4144 -80 l20
-100 -46 0 -46 0 -18 85 c-9 46 -20 91 -23 100 -5 12 3 15 44 15 l49 0 20
-100z m-4180 -152 c-3 -24 -9 -85 -13 -135 l-7 -93 -45 0 -45 0 7 98 c4 53 9
114 13 135 5 36 6 37 51 37 l45 0 -6 -42z m-421 -23 c66 -43 127 -59 136 -35
2 5 13 7 26 3 21 -5 23 -11 20 -57 -3 -48 -4 -51 -28 -48 -14 2 -26 8 -28 13
-9 22 -154 -10 -186 -42 -6 -5 -20 -9 -33 -9 -21 0 -23 4 -23 51 l0 52 43 -6
c23 -3 50 -2 60 2 17 6 17 8 -5 18 -12 5 -34 9 -48 8 -37 -3 -46 9 -42 54 5
54 21 53 108 -4z m478 -282 l7 -53 -31 0 c-16 0 -30 4 -30 10 0 5 -6 7 -14 4
-8 -3 -11 -15 -8 -30 5 -25 16 -31 27 -14 3 6 17 10 31 10 22 0 24 -4 24 -51
0 -59 17 -56 -145 -20 -51 11 -91 15 -93 10 -2 -5 -17 -9 -33 -9 l-29 0 0 70
c0 67 1 70 24 70 13 0 26 -4 28 -9 3 -8 131 26 183 49 21 9 49 18 51 16 1 0 4
-25 8 -53z m-114 -253 c11 -6 22 -26 26 -45 7 -39 31 -47 58 -19 9 8 26 14 38
12 18 -2 24 -12 31 -47 10 -51 -1 -64 -45 -55 -39 8 -181 -16 -191 -33 -11
-18 -44 -16 -51 3 -3 9 -9 46 -12 83 -7 73 -1 85 53 101 39 12 71 12 93 0z
m25 -257 c3 -21 19 -84 36 -141 16 -56 29 -105 29 -107 0 -3 -9 -5 -20 -5 -22
0 -23 -1 -14 -23 4 -12 11 -13 35 -5 16 5 26 14 23 19 -3 5 24 9 59 9 61 0 65
2 71 25 10 40 94 73 112 43 5 -8 10 -4 15 10 4 11 25 30 46 41 21 11 34 20 28
21 -16 1 18 20 35 20 14 0 47 -66 38 -75 -2 -2 -26 -12 -53 -22 -40 -15 -50
-24 -49 -41 0 -18 -5 -22 -27 -22 -15 0 -30 4 -33 9 -3 5 -15 7 -27 4 -16 -4
-19 -11 -15 -29 5 -19 2 -24 -16 -28 -13 -3 -30 -4 -38 -4 -27 2 -170 -56
-170 -69 0 -11 -37 -29 -45 -21 -12 12 -79 206 -101 292 -14 55 -28 109 -30
119 -5 15 2 17 49 17 l55 0 7 -37z m523 -230 c6 -21 41 -87 77 -147 36 -61 65
-111 65 -113 0 -2 -22 -3 -49 -3 -43 0 -49 -2 -44 -19 5 -20 -29 -47 -46 -36
-14 8 -154 -71 -169 -95 -22 -35 -39 -22 -87 65 -25 47 -51 85 -58 86 -7 0 -1
6 12 12 19 9 25 9 29 -1 7 -21 72 -11 72 12 -1 27 -17 38 -38 27 -18 -9 -23
-8 -32 8 -5 11 -10 24 -10 28 0 9 63 43 79 43 4 0 23 -28 41 -62 18 -35 35
-65 37 -67 4 -5 145 -2 151 3 1 2 -24 52 -58 112 -33 60 -60 112 -60 116 0 3
-8 8 -17 11 -14 3 -11 6 10 11 15 5 27 12 27 17 0 8 33 26 51 28 3 1 11 -16
17 -36z m3942 -8 c25 -14 24 -14 -17 -15 -34 0 -41 3 -37 15 7 19 22 19 54 0z
m-4306 -240 c4 -12 -3 -15 -37 -15 -41 1 -42 1 -17 15 32 19 47 19 54 0z
m3986 0 c24 -14 21 -14 -40 -15 l-65 0 -70 -97 c-39 -53 -122 -150 -185 -215
l-115 -118 64 -64 c51 -51 64 -71 64 -95 l0 -31 61 0 61 -1 -33 -29 c-41 -38
-72 -38 -115 0 -30 26 -43 30 -91 30 -31 0 -56 -3 -56 -6 0 -3 15 -24 34 -47
62 -78 69 -107 35 -151 -17 -22 -28 -26 -69 -26 -48 0 -48 0 -110 77 -55 69
-61 82 -58 115 l3 37 -59 3 -60 3 29 19 c39 25 80 24 108 -2 18 -17 36 -22 82
-22 l58 0 -47 50 c-51 55 -57 83 -25 124 11 14 15 26 9 26 -6 0 47 56 117 124
70 68 157 163 193 210 l65 86 50 0 c28 0 59 7 69 15 25 19 63 19 96 0z m-4008
-137 c36 -68 87 -157 114 -198 27 -41 53 -81 57 -87 6 -10 -6 -13 -51 -13
l-60 0 -40 63 c-57 88 -130 220 -163 294 l-28 63 54 0 53 0 64 -122z m4227
103 c89 -46 124 -108 84 -149 -10 -10 -24 -30 -32 -45 l-14 -27 -36 22 c-20
12 -38 23 -40 25 -2 2 1 14 8 26 9 18 19 23 37 19 48 -9 24 26 -45 67 -38 22
-74 41 -80 41 -20 0 -21 -20 -2 -36 16 -14 17 -21 9 -40 -14 -31 -23 -30 -59
5 -32 32 -35 47 -17 86 10 23 16 25 80 25 48 0 80 -6 107 -19z m-3668 -183 c7
-13 4 -21 -13 -32 -12 -8 -25 -13 -29 -10 -10 6 -149 -94 -149 -107 0 -6 9 -5
21 2 17 9 23 8 30 -2 13 -21 11 -26 -23 -48 l-33 -21 44 0 c44 0 44 0 26 -20
-10 -12 -24 -19 -30 -16 -14 5 -147 -112 -140 -124 2 -4 -5 -16 -16 -26 -21
-19 -21 -19 -54 21 -31 37 -33 41 -18 57 9 10 23 18 32 18 9 0 37 20 61 45 24
25 53 45 63 45 15 0 11 10 -25 60 -24 34 -47 68 -53 76 -8 12 -2 22 25 44 30
25 37 27 49 15 13 -13 12 -17 -4 -35 -12 -13 -14 -20 -5 -20 17 0 150 99 150
112 0 6 8 17 18 24 15 12 20 10 40 -14 13 -15 27 -35 33 -44z m3250 -208 c21
-12 18 -22 -19 -69 -16 -20 -22 -22 -40 -12 -12 7 -22 18 -22 26 0 8 -9 20
-20 27 -18 12 -16 13 23 24 57 15 56 15 78 4z m-3241 -129 c0 -4 -9 -16 -20
-26 -11 -10 -20 -15 -20 -11 0 4 -5 4 -11 1 -7 -5 -4 -14 7 -26 17 -18 15 -19
-45 -19 l-61 0 24 49 c14 27 22 51 19 55 -3 3 2 15 12 26 18 19 18 19 56 -11
22 -17 39 -34 39 -38z m65 -51 c26 -27 35 -30 87 -30 60 0 70 -12 24 -30 -46
-17 -156 -102 -156 -120 0 -9 -7 -23 -15 -30 -12 -10 -23 -5 -65 30 -27 23
-50 44 -50 47 0 16 24 44 35 39 8 -3 18 7 25 25 7 16 21 34 32 40 10 5 16 14
12 20 -7 12 14 39 30 39 7 0 25 -13 41 -30z m258 -96 c13 -5 12 -15 -8 -75
l-24 -70 27 20 c15 10 38 31 51 45 45 48 71 27 48 -39 l-14 -40 -78 -5 -78 -5
-13 -37 -13 -38 30 0 c32 0 39 -19 14 -40 -12 -10 -20 -9 -40 4 -14 9 -25 21
-25 26 0 6 -9 10 -20 10 -17 0 -18 3 -9 26 14 37 8 38 -32 4 -38 -32 -103 -43
-93 -15 4 8 10 12 15 10 5 -3 11 5 15 19 3 15 23 35 47 50 23 13 71 54 107 90
67 69 69 70 93 60z m2355 -39 c7 -16 8 -25 2 -25 -6 0 0 -17 13 -37 13 -21 27
-44 31 -50 5 -10 -4 -13 -36 -13 -38 0 -46 4 -61 30 -15 25 -21 28 -38 20 -16
-9 -17 -14 -7 -33 6 -12 11 -24 11 -27 -1 -15 22 -50 33 -50 7 0 16 -4 19 -10
4 -6 -14 -10 -48 -10 -52 0 -54 1 -75 39 -17 29 -19 40 -10 44 10 4 11 7 1 18
-7 7 -13 18 -13 25 0 10 144 103 161 104 3 0 11 -11 17 -25z m-2636 -137 c-7
-7 -12 -20 -12 -29 0 -9 -7 -22 -15 -29 -12 -10 -21 -8 -50 10 -29 18 -33 25
-25 41 9 15 22 19 62 19 41 0 49 -3 40 -12z m2388 -3 c-7 -8 -18 -15 -25 -15
-7 0 -15 7 -19 15 -4 11 2 15 26 15 26 0 29 -2 18 -15z m358 8 c-10 -2 -26 -2
-35 0 -10 3 -2 5 17 5 19 0 27 -2 18 -5z m-2404 -95 c-4 -13 -8 -33 -10 -45
-5 -49 -24 -55 -69 -19 l-30 24 30 31 c19 19 40 31 58 31 25 0 27 -3 21 -22z
m2443 7 c2 -6 -17 -21 -42 -35 -43 -24 -45 -24 -58 -5 -8 10 -12 27 -9 37 4
16 13 18 55 16 28 -2 52 -8 54 -13z m-2049 -51 c16 -11 22 -25 22 -54 0 -90
-107 -111 -139 -27 -27 70 54 126 117 81z m1563 5 c62 -33 31 -138 -42 -139
-62 0 -97 99 -47 134 26 19 61 20 89 5z m-1166 -33 c37 -16 52 -48 41 -89 -3
-13 -30 -50 -60 -84 -49 -53 -53 -61 -36 -66 13 -3 20 0 20 9 0 8 10 14 25 14
18 0 25 -5 25 -20 0 -17 7 -20 49 -20 46 0 49 1 55 31 3 17 6 60 6 94 0 83 23
115 84 115 23 0 52 -7 64 -16 22 -15 23 -21 20 -120 l-3 -104 48 0 48 0 -2
102 c-1 94 0 103 21 120 30 24 101 24 122 1 22 -25 27 -47 30 -140 l2 -83 53
0 c50 0 53 1 48 23 -13 59 -25 144 -25 173 0 68 106 103 148 49 22 -28 48
-174 40 -219 l-5 -26 71 0 c65 -1 69 -2 52 -15 -26 -20 -100 -19 -116 0 -17
21 -130 21 -130 1 0 -24 -41 -46 -84 -46 -40 0 -76 22 -76 47 0 7 -11 13 -26
13 -14 0 -23 3 -21 8 11 16 -8 165 -21 170 -11 3 -13 -15 -10 -87 3 -81 1 -91
-14 -91 -10 0 -18 -5 -18 -12 0 -6 -7 -20 -17 -30 -32 -35 -143 -14 -143 28 0
8 -10 14 -22 14 -22 0 -23 2 -20 91 3 72 1 90 -10 87 -13 -5 -32 -154 -21
-170 2 -5 -5 -8 -16 -8 -11 0 -22 -9 -26 -20 -7 -22 -27 -22 -120 2 -22 6 -73
13 -112 15 -40 3 -73 8 -73 13 0 5 24 37 53 70 68 81 82 103 74 124 -9 22 -27
11 -27 -15 0 -19 -15 -24 -44 -13 -17 6 -21 41 -8 60 9 14 44 33 60 34 7 0 28
-6 47 -14z"/>
<path d="M2670 5289 c0 -52 24 -48 28 4 2 28 -1 37 -12 37 -12 0 -16 -11 -16
-41z"/>
<path d="M2960 5279 c0 -24 4 -30 18 -27 10 2 18 14 20 31 3 22 -1 27 -17 27
-17 0 -21 -6 -21 -31z"/>
<path d="M2233 5078 c13 -33 47 -51 47 -26 0 13 -42 58 -54 58 -3 0 0 -15 7
-32z"/>
<path d="M4011 4979 c-19 -25 -21 -33 -10 -40 10 -6 17 1 27 28 16 47 11 50
-17 12z"/>
<path d="M4296 4861 c-19 -21 -14 -41 9 -41 22 0 37 36 21 49 -10 8 -17 6 -30
-8z"/>
<path d="M5018 4197 c-38 -23 -68 -47 -68 -54 0 -7 3 -13 8 -13 14 0 146 86
150 98 7 22 -22 12 -90 -31z"/>
<path d="M4832 3978 c-28 -14 -23 -33 9 -33 17 0 25 6 27 23 4 24 -2 26 -36
10z"/>
<path d="M747 2873 c-35 -6 -25 -23 14 -23 19 0 29 5 29 15 0 8 -3 14 -7 14
-5 -1 -20 -4 -36 -6z"/>
<path d="M718 2609 c-27 -15 -22 -29 10 -29 34 0 57 14 48 29 -9 14 -35 14
-58 0z"/>
<path d="M1143 1915 c-15 -17 -16 -25 -4 -44 7 -11 13 -11 32 -1 33 17 32 16
19 39 -12 24 -30 26 -47 6z"/>
<path d="M4420 1447 c0 -16 111 -127 128 -127 22 0 12 15 -51 78 -64 63 -77
72 -77 49z"/>
<path d="M4350 1275 c0 -22 100 -146 112 -139 14 9 5 24 -48 93 -48 62 -64 73
-64 46z"/>
<path d="M1546 1269 c-10 -17 -16 -32 -14 -34 8 -8 60 44 54 54 -11 18 -20 13
-40 -20z"/>
<path d="M1755 1100 c-15 -17 -16 -20 -3 -20 9 0 19 7 22 16 10 25 1 27 -19 4z"/>
<path d="M3410 838 c1 -13 6 -52 13 -88 9 -46 17 -65 27 -65 8 0 14 5 14 10
-10 88 -29 165 -40 165 -8 0 -14 -10 -14 -22z"/>
<path d="M1580 5431 c-181 -75 -336 -160 -489 -265 l-73 -51 41 -3 c38 -3 53
4 144 66 133 90 295 179 432 237 61 25 119 50 130 55 15 7 9 9 -25 9 -32 0
-79 -14 -160 -48z"/>
<path d="M2736 4849 c-118 -13 -206 -30 -206 -40 0 -8 33 -5 90 8 14 3 39 7
55 8 17 1 32 3 35 4 19 10 322 17 337 8 6 -4 19 -4 28 -1 13 5 14 8 3 15 -16
11 -247 9 -342 -2z"/>
<path d="M3113 4840 c10 -7 21 -9 24 -6 3 3 13 1 22 -3 9 -5 46 -12 82 -15 37
-3 79 -10 95 -16 16 -6 30 -11 32 -11 1 1 3 1 5 0 19 -6 46 -10 60 -10 9 0 17
-4 17 -10 0 -5 3 -8 8 -7 14 3 128 -35 186 -63 33 -15 63 -26 67 -24 4 3 12
-2 19 -10 7 -8 24 -15 39 -14 70 2 -280 133 -450 169 -124 25 -231 36 -206 20z"/>
<path d="M2370 4771 c-138 -45 -301 -114 -280 -119 9 -1 38 7 65 20 28 12 52
23 55 23 9 3 45 17 65 26 64 29 177 61 238 68 4 1 7 6 7 11 0 16 -29 11 -150
-29z"/>
<path d="M629 4603 c-55 -76 -55 -73 -6 -73 42 0 47 3 86 55 22 30 41 57 41
60 0 3 -19 5 -43 5 -40 0 -46 -4 -78 -47z"/>
<path d="M3657 4642 c13 -4 32 -15 43 -24 11 -10 20 -14 20 -10 0 4 4 1 9 -6
4 -7 14 -15 22 -16 30 -6 49 -19 42 -29 -3 -5 -1 -7 5 -3 6 3 18 -1 26 -10 9
-8 23 -14 32 -12 23 4 -170 118 -198 117 l-23 -1 22 -6z"/>
<path d="M2250 4581 l0 -51 95 0 95 0 0 -30 0 -29 83 -3 82 -3 3 -92 3 -93 59
0 60 0 0 -110 0 -110 -190 0 -190 0 0 -145 0 -145 75 0 75 0 0 -50 0 -50 -85
0 -85 0 0 -80 0 -80 345 0 345 0 0 80 0 80 -95 0 -95 0 0 50 0 50 -75 0 -75 0
0 85 0 85 168 0 c264 1 355 19 444 90 l37 30 189 0 190 0 22 36 c21 37 50 132
50 166 0 15 -9 18 -59 18 l-58 0 -7 56 c-7 65 -27 115 -62 161 l-25 33 -95 0
c-89 0 -96 2 -136 30 -86 63 -96 64 -615 68 l-473 3 0 -50z m974 -140 c55 -27
86 -68 93 -121 l6 -40 58 0 c55 0 59 -2 59 -23 0 -48 -43 -110 -92 -135 -42
-21 -62 -25 -165 -26 l-118 -1 -3 93 -3 92 -59 0 -60 0 0 88 c0 49 3 92 8 96
4 5 57 6 119 3 88 -3 121 -9 157 -26z"/>
<path d="M1898 4497 c-47 -33 -248 -206 -248 -213 0 -17 36 5 83 51 32 30 57
53 57 50 0 -2 10 6 23 18 38 36 121 102 129 102 4 0 13 6 20 13 26 26 -19 12
-64 -21z"/>
<path d="M722 4268 c-11 -15 -79 -149 -92 -184 -9 -23 -8 -24 34 -24 l44 0 55
110 55 110 -43 0 c-23 0 -47 -6 -53 -12z"/>
<path d="M1711 4213 c-86 -97 -126 -153 -108 -153 8 0 26 17 39 38 14 21 44
58 67 82 71 76 81 88 81 94 0 18 -25 -1 -79 -61z"/>
<path d="M219 4013 c-11 -27 -36 -92 -55 -146 l-34 -98 46 3 46 3 38 105 c21
58 45 122 54 143 l16 37 -45 0 c-45 0 -46 -1 -66 -47z"/>
<path d="M4267 4043 c4 -10 9 -20 12 -23 18 -15 102 -153 126 -207 16 -34 35
-52 35 -32 0 28 -152 279 -169 279 -6 0 -7 -8 -4 -17z"/>
<path d="M672 3718 c5 -13 130 -58 161 -58 39 0 9 24 -58 47 -76 25 -109 29
-103 11z"/>
<path d="M1865 3655 c-35 -35 -45 -40 -45 -25 0 29 -16 32 -29 4 -14 -31 -15
-91 -1 -99 6 -3 10 -10 10 -16 0 -5 -4 -9 -10 -9 -5 0 -10 4 -10 9 0 5 -5 22
-10 37 -13 33 -26 23 -35 -28 l-7 -38 41 0 c22 0 41 5 41 10 0 6 14 10 31 10
37 0 94 33 110 62 11 20 9 21 -28 16 l-39 -6 23 46 c43 84 26 95 -42 27z"/>
<path d="M3850 3683 c0 -10 11 -37 24 -59 l24 -42 -40 6 c-39 5 -40 4 -28 -17
16 -31 69 -61 108 -61 17 0 32 -4 32 -10 0 -5 18 -10 40 -10 44 0 50 13 30 65
-12 32 -26 26 -35 -15 -4 -17 -11 -30 -16 -30 -12 0 -12 17 1 25 14 8 13 68
-1 99 -13 28 -29 25 -29 -4 0 -15 -10 -10 -45 25 -48 48 -65 55 -65 28z"/>
<path d="M1885 3499 l-30 -7 34 -1 c26 -1 32 -4 27 -17 -3 -9 -6 -39 -6 -67 0
-46 -1 -49 -14 -31 -14 18 -15 18 -21 -9 -4 -15 -5 -40 -3 -56 l4 -29 -60 4
c-34 2 -53 1 -44 -2 22 -7 25 -19 38 -129 16 -141 15 -145 -20 -145 -16 0 -30
-4 -30 -9 0 -13 59 -61 76 -61 8 0 14 -4 14 -10 0 -15 -3 -13 -67 24 -69 41
-76 32 -40 -47 28 -62 78 -115 115 -123 43 -9 55 -14 49 -20 -2 -3 -37 5 -76
17 -40 11 -74 19 -77 16 -11 -11 27 -66 75 -109 50 -45 90 -61 127 -52 12 3
24 -3 32 -16 11 -19 10 -20 -10 -16 -55 11 -168 17 -168 8 0 -16 78 -81 124
-104 28 -13 42 -26 39 -35 -4 -10 6 -13 40 -13 37 0 47 4 52 20 6 20 15 20
476 20 462 0 469 0 469 -20 0 -19 7 -20 140 -20 l140 0 0 -145 0 -144 56 -3
55 -3 -35 -41 c-19 -23 -58 -74 -86 -114 -43 -63 -50 -70 -50 -47 0 23 -6 29
-30 34 l-30 6 0 83 c0 82 -1 84 -24 84 -22 0 -20 3 20 44 49 49 55 73 21 81
-25 7 -145 -18 -179 -36 -25 -14 -40 4 -32 38 8 31 -100 135 -136 131 -24 -3
-25 -5 -25 -78 l1 -75 -55 0 c-35 0 -56 -5 -58 -13 -5 -13 48 -71 82 -90 11
-6 17 -14 13 -18 -4 -4 -15 -1 -25 7 -15 12 -16 12 -10 -3 5 -13 -2 -22 -23
-33 -34 -18 -75 -7 -84 23 -6 17 -16 20 -63 21 -30 0 -53 -3 -49 -6 12 -12
-16 -33 -38 -28 -26 6 -36 -1 -58 -43 -49 -92 -2 -114 138 -67 41 14 76 25 78
25 2 0 20 -27 40 -60 25 -41 44 -60 57 -60 18 0 18 3 -9 43 -66 96 -65 114 5
87 38 -14 50 -24 60 -51 7 -19 12 -44 12 -56 1 -13 7 -23 16 -23 12 0 12 6 0
48 -8 26 -15 48 -15 50 0 1 24 0 53 -4 38 -4 57 -2 72 9 19 15 19 16 -9 72
-29 55 -30 56 -64 50 -23 -4 -32 -3 -27 4 3 6 15 11 26 11 11 0 18 4 14 10 -3
5 7 16 22 23 31 16 70 7 79 -18 4 -10 13 -13 25 -10 18 6 19 -1 19 -119 l0
-126 80 0 80 0 0 -166 0 -165 -22 6 c-101 30 -339 169 -475 277 -60 47 -64 49
-120 46 l-57 -3 79 -66 c177 -147 397 -281 539 -329 l63 -21 77 31 c163 65
333 169 511 315 l85 70 -74 5 -75 5 115 118 116 117 123 0 124 0 54 67 c63 79
117 158 117 170 -1 4 -9 18 -19 30 -18 21 -28 23 -162 25 -120 3 -144 6 -147
18 -2 10 10 20 32 28 36 13 126 87 126 103 0 10 -112 5 -168 -7 -20 -4 -21 -3
-10 16 8 13 20 19 32 16 37 -9 77 7 127 52 27 24 59 62 69 82 l20 38 -81 -25
c-45 -13 -83 -22 -86 -19 -6 6 6 11 49 20 37 8 87 61 115 123 36 79 29 88 -40
47 -64 -37 -67 -39 -67 -24 0 6 6 10 14 10 17 0 76 48 76 61 0 5 -45 9 -100 9
-55 0 -100 -4 -100 -9 0 -14 59 -61 76 -61 11 0 13 -7 8 -27 -8 -34 -15 -42
-21 -26 -3 7 -21 37 -41 68 -27 42 -42 55 -61 55 -23 0 -24 -2 -18 -62 3 -35
8 -72 12 -83 3 -11 -5 0 -19 25 l-24 45 -11 -28 c-13 -35 -14 -157 -2 -190 6
-14 22 -36 36 -50 24 -22 25 -27 14 -46 -8 -11 -17 -21 -21 -21 -10 0 -56 149
-68 222 -5 35 -10 91 -10 126 l0 62 30 0 c27 0 31 4 46 56 18 62 14 76 -16 49
-24 -21 -24 -21 -5 30 8 22 14 60 14 85 l0 45 -44 -48 c-48 -52 -62 -55 -20
-5 29 35 32 53 8 62 -21 8 -173 -4 -173 -13 0 -17 64 -70 88 -73 22 -2 28 -9
30 -33 l4 -30 -24 21 c-12 12 -44 35 -71 53 -41 28 -47 30 -47 13 0 -10 12
-43 28 -73 21 -42 36 -58 69 -74 26 -12 42 -27 43 -37 0 -25 -12 -22 -41 8
-36 39 -99 87 -105 81 -3 -3 1 -31 10 -61 16 -55 17 -56 55 -56 l38 0 6 -87
c8 -119 32 -232 71 -329 l32 -82 -410 -7 c-226 -4 -433 -5 -461 -3 l-50 3 -3
253 -2 252 61 0 c61 0 139 17 139 30 0 3 -13 19 -30 35 -16 15 -27 32 -24 37
4 5 -4 21 -17 34 -21 23 -21 24 -4 18 11 -4 32 -21 47 -38 23 -26 29 -29 38
-16 26 38 -15 70 -93 70 -44 0 -84 -13 -98 -34 -4 -5 -14 -6 -22 -3 -16 6
-103 -50 -93 -60 3 -3 13 0 21 7 15 12 16 9 13 -31 l-3 -44 -62 -3 -63 -3 0
-68 c0 -52 4 -70 15 -75 9 -3 15 -19 15 -41 0 -24 -4 -35 -15 -35 -9 0 -15 -9
-15 -24 0 -13 7 -26 15 -30 9 -3 15 -19 15 -41 l0 -35 -85 0 -85 0 0 36 c0 27
5 37 20 41 13 3 20 14 20 29 0 23 -3 24 -70 24 l-70 0 0 38 c0 20 14 70 32
110 30 69 33 72 65 72 l33 0 0 114 0 114 63 6 c34 3 121 8 192 11 72 3 159 10
195 15 36 5 139 10 229 10 l164 0 -7 -47 c-3 -27 -9 -87 -13 -135 l-6 -88 40
0 40 0 7 103 c4 56 9 117 12 135 6 31 6 32 -32 34 -22 0 8 4 66 8 86 6 190 26
291 56 12 3 15 -2 11 -25 l-4 -29 76 -7 c42 -4 80 -5 83 -1 4 3 -12 6 -35 6
-49 0 -48 -1 -27 101 9 40 14 74 12 75 -2 2 -39 -9 -83 -25 -382 -139 -1113
-161 -1591 -46 -56 13 -130 36 -164 50 -34 14 -66 25 -70 25 -4 0 2 -39 12
-86 11 -48 18 -88 17 -90 -9 -8 -218 -8 -218 1 -1 6 13 13 30 16 35 8 84 50
106 92 17 32 11 33 -58 7 -28 -11 -54 -18 -56 -15 -8 7 9 25 19 19 14 -8 98
35 109 57 10 18 6 19 -91 17 -55 -1 -104 3 -107 8 -4 6 -20 7 -37 3z m63 -194
c-3 -3 -9 2 -12 12 -6 14 -5 15 5 6 7 -7 10 -15 7 -18z m227 -149 c41 -18 62
-48 71 -103 l7 -43 -51 0 c-50 0 -51 1 -54 33 -2 24 -8 32 -23 32 -15 0 -21
-8 -23 -32 -2 -21 1 -33 9 -33 28 0 -15 -277 -60 -382 l-16 -39 -22 29 -22 29
24 13 c13 7 31 28 40 45 18 39 20 160 4 202 -11 28 -11 27 -54 -57 -24 -47
-44 -93 -44 -102 -1 -26 -16 -22 -30 8 -6 15 -10 27 -9 28 2 1 15 8 29 15 47
23 63 73 64 197 0 121 6 137 60 160 39 17 58 17 100 0z m343 -73 c2 -57 6 -73
18 -73 19 0 11 -32 -16 -70 -17 -25 -17 -27 6 -53 47 -55 24 -194 -36 -224
-40 -20 -113 -16 -143 7 -26 21 -47 73 -47 118 0 20 5 22 45 22 40 0 45 -2 45
-23 0 -33 23 -62 44 -54 14 6 16 18 14 69 -3 57 -5 63 -25 66 -19 3 -23 10
-23 41 0 31 5 40 25 49 15 7 25 20 25 32 0 17 -6 20 -50 20 -27 0 -50 2 -50 5
0 3 16 37 35 76 l36 70 47 -3 47 -3 3 -72z m590 4 c3 -16 1 -17 -17 -7 -25 13
-28 33 -4 28 10 -2 19 -11 21 -21z m802 -21 c0 -3 -4 -8 -10 -11 -5 -3 -10 -1
-10 4 0 6 5 11 10 11 6 0 10 -2 10 -4z m-1952 -84 c-12 -15 -32 -45 -43 -65
-20 -38 -35 -48 -35 -23 0 8 -3 21 -6 29 -3 10 3 17 20 21 13 3 35 19 48 35
13 17 27 30 31 30 5 1 -2 -12 -15 -27z m2129 -192 c16 0 16 -2 1 -35 -15 -33
-21 -32 -34 8 -6 17 -15 41 -19 52 -8 18 -7 17 15 -3 13 -12 30 -22 37 -22z
m-137 -346 c0 -3 -5 -15 -11 -26 -7 -12 -11 -67 -10 -134 2 -97 0 -114 -14
-114 -12 0 -15 15 -15 83 l0 82 -53 -82 -52 -83 -59 0 -59 0 23 28 c14 15 52
56 85 92 42 45 32 38 -33 -25 -51 -49 -88 -91 -82 -93 6 -2 10 -39 10 -87 l0
-83 -32 -6 c-18 -3 -58 -2 -90 3 -31 5 -67 7 -80 4 -21 -5 -21 -4 -8 10 12 13
24 14 65 6 28 -5 62 -7 76 -4 30 7 39 34 39 111 0 37 -3 44 -20 44 -17 0 -19
-8 -22 -67 l-3 -68 -49 -3 c-77 -5 -79 10 -11 78 l59 60 -30 0 c-27 0 -37 -10
-86 -82 -31 -46 -71 -100 -90 -121 -32 -37 -35 -38 -91 -35 l-57 3 34 51 c19
28 40 51 48 52 7 0 36 5 63 10 49 9 49 10 12 11 -21 0 -47 -4 -58 -9 -29 -16
-24 -4 26 59 l45 57 0 107 c0 59 3 107 8 107 23 -1 30 -23 34 -109 3 -60 9
-96 16 -99 9 -3 12 29 12 115 l0 118 60 1 60 1 20 -54 c11 -30 20 -60 20 -68
0 -23 12 -45 21 -39 5 3 9 41 9 85 0 81 4 88 45 79 6 -1 42 -4 81 -5 62 -3 74
-1 100 20 28 24 44 31 44 19z m-1061 -88 c7 -8 16 -27 20 -42 4 -15 16 -32 27
-38 53 -30 29 -52 -30 -27 -41 18 -53 38 -55 94 -1 30 19 37 38 13z m243 -136
l-53 -50 -40 20 c-21 11 -39 27 -39 34 0 20 75 43 145 44 l40 1 -53 -49z
m-316 32 c18 -12 36 -53 30 -68 -5 -12 -10 -13 -28 -3 -28 14 -78 60 -78 71 0
10 61 10 76 0z m98 -33 c-8 -14 -34 -10 -34 5 0 9 7 12 20 9 11 -3 17 -9 14
-14z m-52 -102 c2 -13 13 -23 27 -27 39 -9 38 -30 -1 -30 -67 0 -111 46 -72
75 23 16 42 9 46 -18z m-253 8 c53 -27 46 -43 -25 -65 -37 -11 -75 -20 -85
-20 -27 0 -24 28 3 32 14 2 24 11 26 23 4 20 28 45 44 45 5 0 22 -7 37 -15z
m181 -30 c0 -9 -6 -12 -15 -9 -8 4 -12 10 -9 15 8 14 24 10 24 -6z m735 -175
c-3 -5 -25 -10 -49 -10 -47 0 -72 -19 -78 -58 -2 -13 -18 -32 -37 -45 l-35
-21 39 72 39 72 64 0 c39 0 61 -4 57 -10z"/>
<path d="M3408 2113 c6 -2 18 -2 25 0 6 3 1 5 -13 5 -14 0 -19 -2 -12 -5z"/>
<path d="M3405 2093 c-31 -7 -40 -21 -11 -16 15 3 29 9 32 14 3 5 4 8 2 8 -2
-1 -12 -3 -23 -6z"/>
<path d="M3860 3498 c0 -4 16 -8 35 -8 19 0 35 2 35 4 0 2 -16 6 -35 8 -19 2
-35 0 -35 -4z"/>
<path d="M1306 3474 c-10 -27 -36 -144 -36 -165 0 -10 7 -19 15 -19 15 0 19
12 31 95 8 58 10 64 19 88 5 12 2 17 -8 17 -8 0 -18 -7 -21 -16z"/>
<path d="M4090 3482 c0 -12 29 -36 65 -55 38 -20 25 -22 -20 -3 -40 17 -41 16
-21 -23 21 -40 83 -91 111 -91 13 0 27 -4 30 -10 3 -5 26 -10 51 -10 l44 0 0
38 c0 50 -14 71 -29 46 -8 -15 -10 -9 -11 36 0 30 -4 60 -8 66 -8 13 -212 18
-212 6z m138 -87 c-3 -3 -13 -2 -22 1 -14 5 -15 9 -4 15 13 8 36 -6 26 -16z
m55 -80 c-3 -9 -8 -14 -10 -11 -3 3 -2 9 2 15 9 16 15 13 8 -4z"/>
<path d="M2045 3314 l-50 -23 42 0 c33 -1 45 4 53 20 7 11 10 22 8 23 -2 2
-25 -7 -53 -20z"/>
<path d="M4120 3330 c0 -4 8 -18 18 -30 14 -17 26 -21 62 -18 l45 3 -63 27
c-34 14 -62 23 -62 18z"/>
<path d="M4828 3283 c6 -2 18 -2 25 0 6 3 1 5 -13 5 -14 0 -19 -2 -12 -5z"/>
<path d="M0 3145 l0 -135 45 0 45 0 0 135 0 135 -45 0 -45 0 0 -135z"/>
<path d="M1480 3264 c0 -8 11 -26 25 -40 14 -14 25 -30 25 -37 0 -6 -20 11
-45 38 l-44 50 0 -45 c0 -25 6 -63 14 -85 19 -51 19 -51 -5 -30 -30 27 -34 13
-16 -49 l17 -56 109 0 109 0 17 56 c9 30 13 58 10 61 -6 6 -69 -42 -105 -81
-29 -30 -41 -33 -41 -8 0 10 15 23 39 33 42 18 86 79 97 138 l7 32 -49 -32
c-27 -18 -60 -42 -72 -53 l-24 -21 4 30 c2 23 9 31 28 33 24 4 90 57 90 74 0
4 -43 7 -95 7 -77 0 -95 -3 -95 -15z m50 -204 c0 -5 -2 -10 -4 -10 -3 0 -8 5
-11 10 -3 6 -1 10 4 10 6 0 11 -4 11 -10z"/>
<path d="M4540 3259 c0 -12 5 -73 12 -135 9 -88 15 -114 26 -114 13 0 14 15 8
93 -11 143 -17 177 -32 177 -8 0 -14 -10 -14 -21z"/>
<path d="M4663 3243 c4 -21 9 -82 13 -135 l7 -98 68 0 c55 0 69 3 69 15 0 9 9
15 25 15 14 0 25 -4 25 -10 0 -13 187 -13 192 0 4 11 48 1 48 -11 0 -5 -29 -9
-65 -9 l-65 0 0 -65 c0 -118 -32 -344 -66 -462 -6 -22 -4 -23 64 -23 62 0 71
2 77 20 7 23 23 25 50 6 11 -7 32 -16 46 -19 21 -5 28 -3 32 13 7 27 -7 34
-65 32 -46 -1 -48 0 -47 26 2 55 14 77 39 74 13 -1 27 -7 30 -13 10 -15 117
-41 175 -43 l50 -1 -2 -47 -3 -48 69 0 68 0 16 103 c20 123 37 299 37 385 l0
62 -70 0 -70 0 0 -41 c0 -41 0 -41 -32 -35 -75 14 -208 19 -208 7 0 -6 -14
-11 -31 -11 -28 0 -31 3 -25 23 3 12 6 30 6 40 0 14 10 17 66 17 l67 0 -7 113
c-11 167 -6 157 -88 157 -50 0 -67 -3 -62 -12 5 -8 -5 -9 -35 -5 -57 7 -80 0
-74 -24 5 -19 48 -27 55 -10 2 5 14 11 27 13 27 3 38 -18 40 -76 l1 -28 -52 6
c-65 7 -181 -7 -186 -22 -2 -7 -17 -12 -33 -12 -28 0 -29 2 -29 45 0 25 1 48
3 53 1 4 28 6 60 4 53 -3 58 -2 55 15 -3 20 -68 33 -68 14 0 -6 -13 -11 -30
-11 -25 0 -30 4 -30 25 0 24 -2 25 -71 25 l-72 0 6 -37z m694 -418 c39 -17 57
-48 47 -83 -4 -15 -8 -30 -9 -34 -2 -5 -3 -16 -4 -26 -1 -14 -9 -17 -46 -14
-40 4 -45 7 -45 28 0 17 8 27 27 35 41 15 16 28 -73 38 -84 10 -94 8 -94 -15
0 -12 10 -13 50 -8 l50 7 -6 -34 c-9 -44 -8 -44 -57 -41 -92 6 -95 7 -95 65 0
60 10 84 41 97 28 12 173 2 214 -15z"/>
<path d="M3256 3145 c12 -9 14 -14 6 -15 -7 0 -10 -5 -6 -11 5 -8 8 -8 14 0 7
13 53 -48 65 -86 6 -22 4 -23 -44 -23 -38 0 -51 -4 -51 -15 0 -23 32 -85 42
-79 4 3 8 -1 8 -9 0 -8 12 -20 28 -26 15 -5 41 -18 57 -28 17 -10 31 -19 33
-20 2 -1 -1 -11 -7 -22 -9 -16 -8 -28 4 -51 9 -16 20 -30 26 -30 6 0 9 -10 7
-22 -2 -19 -10 -24 -43 -26 -85 -7 -178 41 -227 117 -32 51 -35 45 -12 -22 21
-63 84 -130 150 -163 72 -35 175 -38 245 -7 152 67 222 233 164 386 -5 12 -2
17 9 17 14 0 14 3 4 20 l-13 20 -9 -20 c-6 -13 -19 -20 -35 -20 -25 0 -26 -2
-23 -50 4 -53 -9 -107 -40 -157 -20 -34 -20 -34 -66 7 -42 37 -69 48 -110 45
-31 -3 -42 0 -42 11 0 8 -4 14 -10 14 -5 0 -10 7 -10 16 0 11 -5 14 -16 10
-24 -9 -36 2 -24 23 11 22 55 23 55 1 0 -20 25 -39 50 -39 15 0 14 3 -7 11
-34 12 -36 38 -7 79 15 22 17 29 6 29 -7 0 -29 21 -47 46 -18 25 -53 59 -78
75 -47 30 -81 40 -46 14z"/>
<path d="M1692 3030 c-11 -17 -10 -20 8 -20 21 0 25 7 12 27 -6 9 -11 7 -20
-7z"/>
<path d="M4851 2868 c-7 -79 -13 -155 -13 -170 0 -16 -4 -28 -7 -28 -4 0 -7
-10 -6 -22 1 -13 0 -27 -4 -33 -3 -5 -6 -17 -6 -25 0 -8 -4 -21 -8 -28 -5 -7
-9 -26 -9 -42 -1 -17 -5 -33 -10 -36 -15 -9 -9 -24 10 -24 31 0 77 227 89 433
5 99 4 117 -8 117 -12 0 -18 -31 -28 -142z"/>
<path d="M2687 2935 c-15 -31 -27 -58 -27 -60 0 -3 14 -5 30 -5 l30 0 0 60 c0
33 -1 60 -3 60 -2 0 -15 -25 -30 -55z"/>
<path d="M1500 2452 c0 -14 38 -121 72 -204 27 -66 35 -78 55 -78 27 0 29 8 8
36 -8 12 -11 24 -8 28 3 3 2 6 -4 6 -13 0 -35 49 -27 61 3 5 -1 11 -8 14 -7 3
-14 19 -15 36 -1 17 -6 36 -11 43 -5 6 -12 23 -16 39 -4 18 -13 27 -26 27 -11
0 -20 -4 -20 -8z"/>
<path d="M2222 2432 l-20 -28 40 -59 c21 -32 60 -85 86 -117 47 -57 48 -58
100 -58 l53 0 -64 75 c-35 41 -76 92 -92 114 -26 39 -27 42 -11 65 9 14 16 28
16 31 0 3 -20 5 -44 5 -37 0 -48 -5 -64 -28z"/>
<path d="M2927 2194 c-15 -16 -5 -24 29 -24 24 0 34 4 32 13 -5 13 -50 22 -61
11z"/>
<path d="M455 2148 c4 -13 24 -66 44 -118 l36 -95 48 -3 48 -3 -17 38 c-9 21
-30 75 -46 121 l-31 82 -44 0 c-41 0 -44 -2 -38 -22z"/>
<path d="M2179 2111 c28 -32 80 -86 116 -120 66 -61 66 -61 126 -61 l61 0 -53
47 c-30 26 -87 80 -127 120 -72 71 -75 73 -124 73 l-50 0 51 -59z"/>
<path d="M2672 2153 c2 -12 13 -18 33 -18 20 0 31 6 33 18 3 14 -4 17 -33 17
-29 0 -36 -3 -33 -17z"/>
<path d="M3214 2154 c3 -9 6 -40 6 -70 0 -34 4 -53 10 -49 6 3 10 35 10 71 0
52 -3 64 -16 64 -11 0 -14 -5 -10 -16z"/>
<path d="M4675 2152 c-3 -8 -3 -18 1 -23 3 -5 1 -9 -5 -9 -10 0 -19 -15 -70
-108 -8 -15 -22 -35 -33 -46 -24 -26 -23 -36 5 -36 19 0 35 19 85 103 79 133
81 138 48 135 -14 -1 -28 -9 -31 -16z"/>
<path d="M1675 1903 c51 -79 172 -213 290 -320 70 -64 84 -73 118 -73 24 0 36
4 32 11 -4 6 -9 8 -12 5 -2 -2 -13 3 -22 12 -10 10 -48 43 -84 76 -37 32 -64
63 -61 67 3 5 -1 9 -9 9 -8 0 -29 16 -46 35 -17 20 -31 33 -31 29 0 -6 -51 53
-83 97 -10 13 -15 18 -11 10 5 -9 3 -12 -5 -7 -6 4 -9 12 -5 17 9 15 -39 59
-65 59 -23 0 -23 0 -6 -27z"/>
<path d="M2940 1895 c19 -20 44 -35 57 -35 20 0 23 5 23 35 0 24 -5 35 -15 35
-8 0 -12 -6 -9 -14 9 -23 -12 -27 -31 -6 -10 11 -27 20 -39 20 -17 0 -16 -4
14 -35z"/>
<path d="M686 1433 c87 -119 91 -123 141 -123 l43 0 -73 99 -72 100 -48 0 -48
1 57 -77z"/>
<path d="M3965 1499 c-33 -32 -64 -56 -68 -53 -2 2 -21 -7 -41 -21 -21 -14
-42 -22 -48 -19 -6 4 -8 3 -5 -3 3 -5 -12 -19 -34 -31 -22 -12 -37 -16 -33 -9
4 7 -1 5 -12 -4 -10 -9 -32 -24 -49 -32 l-30 -16 50 -1 50 -1 -55 -20 c-30
-11 -65 -22 -77 -25 -12 -2 -35 -9 -50 -15 -26 -10 -132 -34 -198 -45 -261
-44 -427 -44 -687 1 -64 12 -242 58 -309 80 -44 15 -94 25 -128 25 l-56 -1 35
-17 c247 -124 578 -191 875 -179 251 11 431 51 670 151 l100 41 -54 5 -55 5
55 29 c64 35 172 105 214 140 l30 25 -40 0 c-22 0 -44 -4 -50 -10z"/>
<path d="M935 1268 c165 -178 177 -188 224 -188 l44 0 -64 68 c-35 37 -83 88
-105 115 -39 44 -45 47 -90 47 l-48 0 39 -42z"/>
<path d="M1010 1040 c38 -34 52 -40 90 -40 l45 1 -45 39 c-38 33 -52 39 -90
39 l-45 0 45 -39z"/>
<path d="M1915 633 c109 -60 371 -157 535 -198 129 -33 314 -62 430 -68 52 -3
82 -4 65 -1 -16 2 -82 11 -145 20 -224 30 -486 108 -719 213 -79 35 -127 51
-155 51 l-41 -1 30 -16z"/>
</g>
</svg>
